<svg id="Layer_1" data-name="Layer 1" xmlns="http://www.w3.org/2000/svg" viewBox="0 0 150 35.17"><defs><style>.cls-1{fill:#231f20;}</style></defs><title>logo_it</title><path class="cls-1" d="M8.76,30.59a4.48,4.48,0,0,1-4.38,4.58,4.58,4.58,0,0,1,0-9.15,4.48,4.48,0,0,1,4.38,4.58M8.7,21.32V4.52A4.43,4.43,0,0,0,4.38,0,4.43,4.43,0,0,0,.06,4.52v16.8a4.43,4.43,0,0,0,4.32,4.51A4.43,4.43,0,0,0,8.7,21.32M34.08,0H13.53A4.18,4.18,0,0,0,9.46,4.25a4.18,4.18,0,0,0,4.07,4.25h6.2V22.68a4.08,4.08,0,1,0,8.15,0V8.51h6.2a4.18,4.18,0,0,0,4.07-4.25A4.18,4.18,0,0,0,34.08,0m5.27,19.68a7.16,7.16,0,0,0,7.4,7.5,7.18,7.18,0,0,0,7.43-7.5v-5.9H47v.9h6.47v5a6.4,6.4,0,0,1-6.68,6.61,6.36,6.36,0,0,1-6.65-6.61V7.4c0-4.33,3.28-6.45,6.59-6.45a6.17,6.17,0,0,1,5.91,3.47l.69-.56A7.43,7.43,0,0,0,39.35,7.4ZM58.71.38V26.81H71.27v-.93H59.45V14.16H70.37v-1H59.45V1.32H71.27V.38ZM81.56,12.85c-3.4-.86-6.44-2.5-6.2-6.42S78.43.9,81.41.9a6.3,6.3,0,0,1,5.88,3.51L88,4.08A6.84,6.84,0,0,0,81.41,0C78,0,74.73,2.06,74.61,6.43c-.18,5,3.61,6.5,6.77,7.31s6.56,2.21,6.29,6.91a6,6,0,0,1-6.24,5.63,7.2,7.2,0,0,1-6.32-3.73l-.69.37a7.75,7.75,0,0,0,7,4.25,6.82,6.82,0,0,0,7.1-6.53c.3-5.19-3.46-6.95-6.92-7.81M90.39.38v.93h7V26.81h.74V1.32h7V.38Z"/><rect class="cls-1" x="115.74" width="0.21" height="27.17"/><path class="cls-1" d="M121.16.4a5.29,5.29,0,0,1,1.18-.13,2,2,0,0,1,1.53.49,1.26,1.26,0,0,1,.37,1,1.42,1.42,0,0,1-1,1.31V3a1.53,1.53,0,0,1,1.24,1.5A1.59,1.59,0,0,1,124,5.67a2.57,2.57,0,0,1-1.86.56c-.44,0-.78,0-1-.05Zm.42,2.49h.85a1.22,1.22,0,0,0,1.38-1.15c0-.83-.63-1.12-1.5-1.12a3.12,3.12,0,0,0-.74.06Zm0,2.94a4,4,0,0,0,.72,0c.9,0,1.74-.32,1.74-1.32s-.79-1.32-1.72-1.32h-.74Z"/><path class="cls-1" d="M128.77,5.16c0,.37,0,.7,0,1h-.39l0-.75h0a1.61,1.61,0,0,1-1.43.84c-.53,0-1.43-.27-1.43-1.85V2h.42V4.35c0,.91.28,1.56,1.11,1.56a1.38,1.38,0,0,0,1.24-.84,1.51,1.51,0,0,0,.08-.46V2h.42Z"/><path class="cls-1" d="M130.72.81a.34.34,0,0,1-.35.36A.34.34,0,0,1,130,.81a.36.36,0,0,1,.34-.37A.34.34,0,0,1,130.72.81Zm-.54,5.37V2h.42V6.18Z"/><path class="cls-1" d="M132,0h.42V6.18H132Z"/><path class="cls-1" d="M137.18,0V5.21c0,.31,0,.68,0,1h-.37l0-.79h0a1.58,1.58,0,0,1-1.49.89,1.9,1.9,0,0,1-1.8-2.11,2,2,0,0,1,1.88-2.26,1.48,1.48,0,0,1,1.37.74h0V0Zm-.42,3.66a1.44,1.44,0,0,0,0-.38,1.34,1.34,0,0,0-1.31-1c-.91,0-1.49.79-1.49,1.87s.47,1.8,1.46,1.8a1.39,1.39,0,0,0,1.34-1.09,1.12,1.12,0,0,0,0-.35Z"/><path class="cls-1" d="M125.14,16.42a3.79,3.79,0,0,1-1.58.3,2.7,2.7,0,0,1-2.78-3,2.87,2.87,0,0,1,3-3.06,2.92,2.92,0,0,1,1.36.26l-.13.35a2.79,2.79,0,0,0-1.22-.25,2.43,2.43,0,0,0-2.55,2.72,2.36,2.36,0,0,0,2.48,2.62,3.17,3.17,0,0,0,1.32-.27Z"/><path class="cls-1" d="M129.64,14.5a2,2,0,0,1-2,2.23,2,2,0,0,1-1.92-2.15,2,2,0,0,1,2-2.22A2,2,0,0,1,129.64,14.5Zm-3.5.05a1.67,1.67,0,0,0,1.52,1.83,1.69,1.69,0,0,0,1.56-1.85,1.56,1.56,0,1,0-3.08,0Z"/><path class="cls-1" d="M130.7,13.45c0-.38,0-.67,0-1h.39l0,.76h0a1.58,1.58,0,0,1,1.44-.85c.4,0,1.46.2,1.46,1.77v2.51h-.42V14.16c0-.76-.3-1.45-1.16-1.45a1.34,1.34,0,0,0-1.25,1,1.63,1.63,0,0,0-.05.37v2.59h-.42Z"/><path class="cls-1" d="M135.37,13.45c0-.38,0-.67,0-1h.39l0,.76h0a1.58,1.58,0,0,1,1.44-.85c.4,0,1.46.2,1.46,1.77v2.51h-.42V14.16c0-.76-.3-1.45-1.16-1.45a1.34,1.34,0,0,0-1.25,1,1.63,1.63,0,0,0-.05.37v2.59h-.42Z"/><path class="cls-1" d="M140.09,14.5c0,1.33.72,1.86,1.59,1.86a2.43,2.43,0,0,0,1.16-.24l.1.32a2.76,2.76,0,0,1-1.31.27,1.92,1.92,0,0,1-1.95-2.1c0-1.39.8-2.26,1.88-2.26a1.7,1.7,0,0,1,1.63,1.89,1.07,1.07,0,0,1,0,.25Zm2.66-.33a1.28,1.28,0,0,0-1.24-1.46,1.49,1.49,0,0,0-1.4,1.46Z"/><path class="cls-1" d="M147.14,16.45a2.86,2.86,0,0,1-1.23.27,2,2,0,0,1-2-2.13,2.1,2.1,0,0,1,2.15-2.23,2.14,2.14,0,0,1,1.1.26L147,13a2,2,0,0,0-1-.24,1.68,1.68,0,0,0-1.7,1.84A1.65,1.65,0,0,0,146,16.36a2.32,2.32,0,0,0,1-.24Z"/><path class="cls-1" d="M148.81,11.53v.92H150v.34h-1.19v2.72c0,.53.17.86.61.86a1.56,1.56,0,0,0,.48-.06l.05.31a1.45,1.45,0,0,1-.58.1.87.87,0,0,1-.71-.3,1.53,1.53,0,0,1-.26-1V12.79h-.71v-.34h.71v-.77Z"/><path class="cls-1" d="M125.14,26.87a3.78,3.78,0,0,1-1.58.3,2.7,2.7,0,0,1-2.78-3,2.87,2.87,0,0,1,3-3.06,2.92,2.92,0,0,1,1.36.26l-.13.35a2.79,2.79,0,0,0-1.22-.25,2.43,2.43,0,0,0-2.55,2.72,2.36,2.36,0,0,0,2.48,2.62,3.17,3.17,0,0,0,1.32-.27Z"/><path class="cls-1" d="M126.11,24.15c0-.42,0-.84,0-1.25h.38l0,.84h0a1.3,1.3,0,0,1,1.18-.94l.17,0v.4a.71.71,0,0,0-.2,0c-.57,0-1,.5-1.1,1.17a2,2,0,0,0,0,.4v2.31h-.42Z"/><path class="cls-1" d="M128.65,24.94c0,1.33.72,1.86,1.59,1.86a2.43,2.43,0,0,0,1.16-.24l.1.32a2.76,2.76,0,0,1-1.31.27,1.92,1.92,0,0,1-1.95-2.1c0-1.39.8-2.26,1.88-2.26a1.7,1.7,0,0,1,1.63,1.89,1.07,1.07,0,0,1,0,.25Zm2.66-.33a1.28,1.28,0,0,0-1.24-1.46,1.49,1.49,0,0,0-1.4,1.46Z"/><path class="cls-1" d="M135.42,26.08a6.3,6.3,0,0,0,.06,1h-.38l-.06-.6h0a1.6,1.6,0,0,1-1.34.7A1.14,1.14,0,0,1,132.45,26c0-1,.84-1.55,2.55-1.53v-.11c0-.41-.08-1.24-1.07-1.23a1.82,1.82,0,0,0-1.05.31l-.13-.3A2.31,2.31,0,0,1,134,22.8c1.21,0,1.44.91,1.44,1.65ZM135,24.84c-.91,0-2.12.11-2.12,1.11a.8.8,0,0,0,.84.87A1.25,1.25,0,0,0,135,26a.7.7,0,0,0,0-.25Z"/><path class="cls-1" d="M137.34,22v.92h1.19v.34h-1.19V26c0,.53.17.86.61.86a1.56,1.56,0,0,0,.48-.06l.05.31a1.46,1.46,0,0,1-.58.1.87.87,0,0,1-.71-.3,1.53,1.53,0,0,1-.26-1V23.24h-.71V22.9h.71v-.77Z"/><path class="cls-1" d="M139.47,24.94c0,1.33.72,1.86,1.59,1.86a2.43,2.43,0,0,0,1.16-.24l.1.32a2.76,2.76,0,0,1-1.31.27,1.92,1.92,0,0,1-1.95-2.1c0-1.39.8-2.26,1.88-2.26a1.7,1.7,0,0,1,1.63,1.89,1.07,1.07,0,0,1,0,.25Zm2.66-.33a1.28,1.28,0,0,0-1.24-1.46,1.49,1.49,0,0,0-1.4,1.46Z"/></svg>